<?xml version="1.0" encoding="utf-8"?>
<!-- Generator: Adobe Illustrator 24.0.3, SVG Export Plug-In . SVG Version: 6.00 Build 0)  -->
<svg version="1.1" id="Icon" xmlns="http://www.w3.org/2000/svg" xmlns:xlink="http://www.w3.org/1999/xlink" x="0px" y="0px"
	 viewBox="0 0 260 260" style="enable-background:new 0 0 260 260;" xml:space="preserve">
<style type="text/css">
	.st0{fill:#FFFFFF;}
	.st1{fill:none;stroke:#000000;stroke-width:2.4746;stroke-linecap:round;stroke-linejoin:round;stroke-miterlimit:10;}
	.st2{fill:#FA8072;}
</style>
<g id="Rutu_1_">
	<path id="Face_1_" class="st0" d="M186.3,112.5c0.1,11.5-1,22.9-1.5,34.4c-0.5,12.3-6.5,22.2-13.2,32
		c-7.6,11.1-18.1,18.5-29.5,24.9c-7.4,4.2-14.8,4.7-22.5,0.4c-26.2-14.5-42.3-35.4-42.4-66.5c0-6-0.7-12.1-0.1-18
		c1-9.1-2.4-15.5-10-20.1c-1.1-0.7-4.2-2-6.2-2.9c0.7-1,5.9-6.4,6.6-7.4c8.3,9.4,17.1,11.2,27,12.2c4.8,0.5,9.2-0.9,12.4-4.8
		c3-3.6,6.7-4.7,11-2.7c10.8,4.9,19.9,1.4,27.5-6.4c6.6-6.8,16.8-1.8,23.5-7.8c0.1-0.1,1.1,0.3,1.2,0.7
		C173.7,93.1,186.1,90.7,186.3,112.5z"/>
	<path id="Mouth" class="st1" d="M120.7,169.6c7.1,4.7,14.2,5.1,21.3,0"/>
	<path id="Nose" class="st1" d="M128.3,154.6c2.1,1.6,4.2,1.7,6.2,0"/>
	<path id="Slide" class="st1" d="M62,90.8c4.1,3.6,11.9,9.6,16,13.1"/>
	<path id="Specs" class="st1" d="M138.8,125.3c1.4,9.8,9.4,18.7,18.1,21.2c10.8,3.1,22.9-7.2,22.9-18.7c0.1-12.2-2.2-17.5-9.9-18.7
		c-10.9-1.7-22.6-0.9-31.2,8C138.8,119.8,138.8,122.5,138.8,125.3v-8.2c-4.7,0-9.3,0-14.8,0c0,2.7,0,5.5,0,8.2
		c-1.4,9.8-9.4,18.7-18.1,21.2c-10.8,3.1-22.9-7.2-22.9-18.7c-0.1-12.2,2.2-17.5,9.9-18.7c10.9-1.7,22.6-0.9,31.2,8"/>
	<circle id="EyeL" cx="104.6" cy="128.3" r="3.5"/>
	<circle id="EyeR" cx="158.1" cy="128.3" r="3.5"/>
	<path id="HairSalmon" class="st2" d="M242.7,121c-4.4,14.7-1.1,28.6,4.4,42.2c3.4,8.3,0.5,16.8-0.6,25c-1.1,7.9-1.2,15.6,0.4,23.5
		c5.3,26.6-14.6,46.6-40.8,39.8c-18.6-4.8-36-5.1-54.2,1.9c-13.4,5.1-28.1,2.1-42.1-0.2c-15.6-2.6-31-0.8-46.4,1.1
		c-10.2,1.3-20.2,0.1-29.8-3.3c-14.3-5.1-22.1-18.2-19.4-33.8c2.1-12.3,2.3-24.3-1-36.3c-2.7-10-2.7-19.9,0.8-29.7
		c0.9-2.5,2.5-9.1,2.3-11.8c-2.1-23.6-1.9-33.8,10-54c1.7-2.8,3.8-14.3,4.3-17.8c1.7-10.8,7.2-19.4,15.7-26c8-6.2,15.1-13,21-21.4
		c11-15.7,28-16.6,44.9-14.6c9.3,1.1,17.8,1.8,27.3-0.2c18.5-3.9,35.8-0.1,49.4,14.5c0.9,1,1.9,2.1,3.1,2.5
		c22.5,7.5,30.8,25.2,33.5,46.8c1.3,10.1,3.1,19.6,9.5,28.2C240.1,104,243.8,111.9,242.7,121z M103.8,19.3
		c-13.2-0.3-23.2,5-30.3,16.1c-3.8,6-8.4,11.5-14.7,15.1c-9.2,5.4-13.7,13.3-15.4,23.7C42.2,81.9,42,90,36.9,96.7
		c-6.9,9-8.6,19.3-6.9,30.2c1.2,7.7,0.8,15.2-1.7,22.6c-3.3,9.6-3.6,19.3-0.6,28.9c3.1,9.9,3.4,19.3,0.7,29.6
		c-4.1,15.4,5.6,28.8,21.1,30.9c10,1.3,20.3,1.7,30.2-0.4c12.9-2.9,25.4-1.9,38,1.1c10.5,2.5,21.5,3.4,31.4-0.8
		c17.3-7.3,34.2-5.9,51.8-1.7c22.8,5.5,35.5-7.5,31.1-30.5c-1.4-7.4-1.9-14.8,0.1-21.9c3.2-11.1,2-21.5-2.3-31.9
		c-3.4-8.3-4.5-16.6-2.3-25.5c2.1-8.5,1.2-16.9-4.4-24.1c-7.2-9.2-9.4-19.7-10.4-31.2c-1.5-17.1-9-30.8-26.8-36.1
		c-2-0.6-3.2-1.7-4.5-3.1c-10.7-12.2-24.5-16.6-39.8-12.9C132,22,123,22,113.5,20.3C110.3,19.8,107,19.6,103.8,19.3z"/>
	<path id="HairBlack" d="M232.2,184.6c3.2-11.1,2-21.5-2.3-31.9c-3.4-8.3-4.5-16.6-2.3-25.6c2.1-8.5,1.2-17-4.4-24.2
		c-7.2-9.2-9.4-19.8-10.4-31.2c-1.5-17.1-9-30.9-26.9-36.2c-2-0.6-3.2-1.7-4.5-3.1c-10.7-12.3-24.6-16.6-39.9-12.9
		c-9.7,2.3-18.7,2.4-28.2,0.7c-3.2-0.6-6.5-0.7-9.7-1c-13.2-0.3-23.2,5-30.3,16.1c-3.8,6-8.5,11.5-14.7,15.2
		C49.5,55.8,45,63.8,43.3,74.1c-1.2,7.7-1.5,15.8-6.6,22.5c-6.9,9-8.6,19.3-6.9,30.2c1.2,7.7,0.8,15.3-1.7,22.6
		c-3.3,9.6-3.6,19.3-0.6,28.9c3.1,9.9,3.5,19.4,0.7,29.6c-4.1,15.4,5.6,28.8,21.1,30.9c10.1,1.3,20.4,1.7,30.2-0.4
		c13-2.9,25.4-1.9,38,1.1c10.6,2.5,21.5,3.4,31.5-0.8c17.4-7.3,34.2-5.9,51.9-1.7c22.8,5.5,35.5-7.5,31.1-30.6
		C230.7,199.2,230.2,191.7,232.2,184.6z M186.3,112.5c0.1,11.5-1,22.9-1.5,34.4c-0.5,12.3-6.5,22.2-13.2,32
		c-7.6,11.1-18.1,18.5-29.5,24.9c-7.4,4.2-14.8,4.7-22.5,0.4c-26.2-14.5-42.3-35.4-42.4-66.5c0-6-0.7-12.1-0.1-18
		c1-9.1-2.4-15.5-10-20.1c-1.1-0.7-4.2-2-6.2-2.9c0.7-1,5.9-6.4,6.6-7.4c8.3,9.4,17.1,11.2,27,12.2c4.8,0.5,9.2-0.9,12.4-4.8
		c3-3.6,6.7-4.7,11-2.7c10.8,4.9,19.9,1.4,27.5-6.4c6.6-6.8,16.8-1.8,23.5-7.8c0.1-0.1,1.1,0.3,1.2,0.7
		C173.7,93.1,186.1,90.7,186.3,112.5z"/>
</g>
</svg>
