<?xml version="1.0" encoding="utf-8"?>
<!-- Generator: Adobe Illustrator 24.0.3, SVG Export Plug-In . SVG Version: 6.00 Build 0)  -->
<svg version="1.1" id="Icon" xmlns="http://www.w3.org/2000/svg" xmlns:xlink="http://www.w3.org/1999/xlink" x="0px" y="0px"
	 viewBox="0 0 260 260" style="enable-background:new 0 0 260 260;" xml:space="preserve">
<style type="text/css">
	.st0{fill:#FFFFFF;}
	.st1{fill:#FA8072;}
	.st2{fill:none;stroke:#000000;stroke-width:1.9805;stroke-linecap:round;stroke-linejoin:round;stroke-miterlimit:10;}
</style>
<g id="Rutu_1_">
	<path id="HairSalmon_1_" class="st0" d="M241.6,121.1c-4.4,14.6-1.1,28.3,4.4,41.8c3.4,8.2,0.5,16.6-0.6,24.8
		c-1.1,7.8-1.2,15.5,0.4,23.3c5.2,26.3-14.5,46.2-40.4,39.4c-18.4-4.8-35.7-5.1-53.7,1.9c-13.3,5.1-27.8,2.1-41.7-0.2
		c-15.5-2.6-30.7-0.8-46,1.1c-10.1,1.3-20,0.1-29.5-3.3c-14.2-5.1-21.9-18-19.2-33.5c2.1-12.2,2.3-24.1-1-36
		c-2.7-9.9-2.7-19.7,0.8-29.4c0.9-2.5,2.5-9,2.3-11.7c-2.1-23.4-1.9-33.5,9.9-53.5c1.7-2.8,3.8-14.2,4.3-17.6
		c1.7-10.7,7.1-19.2,15.6-25.8c7.9-6.1,15-12.9,20.8-21.2C78.8,5.7,95.6,4.8,112.4,6.8c9.2,1.1,17.6,1.8,27-0.2
		c18.3-3.9,35.5-0.1,48.9,14.4c0.9,1,1.9,2.1,3.1,2.5c22.3,7.4,30.5,25,33.2,46.4c1.3,10,3.1,19.4,9.4,27.9
		C239.1,104.2,242.7,112.1,241.6,121.1z"/>
	<path id="HairSalmon" class="st1" d="M220.2,133.8c-3.5,11.8-0.9,22.9,3.5,33.8c2.7,6.6,0.4,13.4-0.5,20c-0.9,6.3-1,12.5,0.3,18.8
		c4.2,21.3-11.7,37.3-32.7,31.9c-14.9-3.8-28.8-4.1-43.4,1.5c-10.7,4.1-22.5,1.7-33.7-0.2c-12.5-2.1-24.8-0.6-37.1,0.9
		c-8.2,1-16.2,0.1-23.9-2.6c-11.4-4.1-17.7-14.6-15.5-27.1c1.7-9.8,1.8-19.4-0.8-29.1c-2.2-8-2.2-15.9,0.6-23.8c0.7-2,2-7.3,1.8-9.4
		c-1.7-18.9-1.5-27.1,8-43.2c1.4-2.2,3-11.4,3.4-14.2c1.4-8.6,5.8-15.5,12.6-20.8c6.4-5,12.1-10.4,16.8-17.1
		c8.8-12.6,22.4-13.3,35.9-11.7c7.4,0.9,14.2,1.4,21.8-0.2c14.8-3.1,28.7-0.1,39.5,11.6c0.7,0.8,1.5,1.7,2.5,2
		c18,6,24.7,20.2,26.8,37.5c1,8.1,2.5,15.7,7.6,22.6C218.1,120.2,221.1,126.5,220.2,133.8z"/>
	<path id="HairBlack" d="M211.8,184.7c2.6-8.9,1.6-17.2-1.8-25.5c-2.7-6.6-3.6-13.3-1.8-20.5c1.7-6.8,1-13.6-3.5-19.4
		c-5.8-7.4-7.5-15.8-8.3-25c-1.2-13.7-7.2-24.7-21.5-29c-1.6-0.5-2.6-1.4-3.6-2.5c-8.6-9.8-19.7-13.3-31.9-10.3
		c-7.8,1.8-15,1.9-22.6,0.6c-2.6-0.5-5.2-0.6-7.8-0.8c-10.6-0.2-18.6,4-24.3,12.9c-3,4.8-6.8,9.2-11.8,12.2
		C65.6,81.6,62,88,60.6,96.3c-1,6.2-1.2,12.6-5.3,18c-5.5,7.2-6.9,15.4-5.5,24.2c1,6.2,0.6,12.2-1.4,18.1
		c-2.6,7.7-2.9,15.4-0.5,23.1c2.5,7.9,2.8,15.5,0.6,23.7c-3.3,12.3,4.5,23.1,16.9,24.7c8.1,1,16.3,1.4,24.2-0.3
		c10.4-2.3,20.3-1.5,30.4,0.9c8.5,2,17.2,2.7,25.2-0.6c13.9-5.8,27.4-4.7,41.5-1.4c18.2,4.4,28.4-6,24.9-24.5
		C210.6,196.4,210.2,190.4,211.8,184.7z"/>
	<path id="Face_1_" class="st0" d="M175.1,127c0.1,9.2-0.8,18.3-1.2,27.5c-0.4,9.8-5.2,17.8-10.6,25.6c-6.1,8.9-14.5,14.8-23.6,19.9
		c-5.9,3.4-11.8,3.8-18,0.3c-21-11.6-33.9-28.3-33.9-53.2c0-4.8-0.6-9.7-0.1-14.4c0.8-7.3-1.9-12.4-8-16.1c-0.9-0.6-3.4-1.6-5-2.3
		c0.6-0.8,4.7-5.1,5.3-5.9c6.6,7.5,13.7,9,21.6,9.8c3.8,0.4,7.4-0.7,9.9-3.8c2.4-2.9,5.4-3.8,8.8-2.2c8.6,3.9,15.9,1.1,22-5.1
		c5.3-5.4,13.4-1.4,18.8-6.2c0.1-0.1,0.9,0.2,1,0.6C165,111.5,174.9,109.6,175.1,127z"/>
	<path id="Mouth" class="st2" d="M122.6,172.7c5.7,3.8,11.4,4.1,17,0"/>
	<path id="Nose" class="st2" d="M128.6,160.7c1.7,1.3,3.4,1.4,5,0"/>
	<path id="Slide" class="st2" d="M75.6,109.6c3.3,2.9,9.5,7.7,12.8,10.5"/>
	<path id="Specs" class="st2" d="M137,137.3c1.1,7.8,7.5,15,14.5,17c8.6,2.5,18.3-5.8,18.3-15c0.1-9.8-1.8-14-7.9-15
		c-8.7-1.4-18.1-0.7-25,6.4C137,132.9,137,135,137,137.3v-6.6c-3.8,0-7.4,0-11.8,0c0,2.2,0,4.4,0,6.6c-1.1,7.8-7.5,15-14.5,17
		c-8.6,2.5-18.3-5.8-18.3-15c-0.1-9.8,1.8-14,7.9-15c8.7-1.4,18.1-0.7,25,6.4"/>
	<circle id="EyeL" cx="109.7" cy="139.7" r="2.8"/>
	<circle id="EyeR" cx="152.5" cy="139.7" r="2.8"/>
</g>
</svg>
